<?xml version="1.0" encoding="UTF-8" standalone="no"?>
<svg width="90px" height="18px" viewBox="0 0 90 18" version="1.1" xmlns="http://www.w3.org/2000/svg" xmlns:xlink="http://www.w3.org/1999/xlink">
    <!-- Generator: Sketch 3.7.2 (28276) - http://www.bohemiancoding.com/sketch -->
    <title>Group</title>
    <desc>Created with Sketch.</desc>
    <defs></defs>
    <g id="Page-1" stroke="none" stroke-width="1" fill="none" fill-rule="evenodd">
        <g id="noun_446618_cc" transform="translate(0.000000, -1.000000)" fill="#FDA72D">
            <g id="Group" transform="translate(0.000000, 0.637800)">
                <path d="M4.9244753,17.3624 C5.463175,17.0919 6.579885,16.494 7.406045,16.0339 L8.908155,15.1973 L9.855315,15.762 C12.048445,17.0696 13.603665,17.8023 14.186165,17.8023 C14.924135,17.8023 14.819395,16.1202 13.847955,12.371 L13.676175,11.708 L14.245635,11.1769 C15.172795,10.3123 17.470365,7.9978 17.647615,7.7498 C17.859755,7.4531 17.857085,7.3048 17.635815,7.0961 C17.441335,6.9127 17.290195,6.87 16.248185,6.7039 C15.537985,6.5907 12.922375,6.261 12.275085,6.2031 C12.053195,6.1831 11.852805,6.1411 11.829765,6.1091 C11.806665,6.0771 11.603375,5.6407 11.377885,5.1391 C10.764045,3.7736 9.721505,1.6465 9.510275,1.3285 C9.189905,0.8462 8.841535,0.7377 8.519955,1.0201 C8.423355,1.1051 8.200875,1.4391 8.025495,1.7627 C7.715205,2.3353 6.727515,4.424 6.218345,5.5844 L5.965775,6.1601 L4.7362753,6.3065 C3.3070453,6.4766 1.5629553,6.719 0.9244753,6.8361 C0.1609757,6.9763 -0.1280843,7.2295 0.0516257,7.6009 C0.1851357,7.8768 1.1453553,8.8845 2.5270053,10.1987 C3.2378453,10.8748 3.8955553,11.4962 3.9885753,11.5796 L4.1577153,11.7313 L3.8684953,13.2165 C3.4435653,15.3986 3.2201553,16.7649 3.2201553,17.1814 C3.2201553,17.5191 3.2328553,17.5625 3.3724753,17.7022 C3.6335053,17.9632 3.8020153,17.9263 4.9244653,17.3625 L4.9244753,17.3624 Z" id="Shape"></path>
                <path d="M22.973406,17.3624 C23.512106,17.0919 24.628816,16.494 25.454966,16.0339 L26.957076,15.1973 L27.904246,15.762 C30.097376,17.0696 31.652586,17.8023 32.235096,17.8023 C32.973066,17.8023 32.868326,16.1202 31.896886,12.371 L31.725096,11.708 L32.294566,11.1769 C33.221726,10.3123 35.519296,7.9978 35.696546,7.7498 C35.908686,7.4531 35.906016,7.3048 35.684746,7.0961 C35.490266,6.9127 35.339126,6.87 34.297106,6.7039 C33.586916,6.5907 30.971306,6.261 30.324006,6.2031 C30.102126,6.1831 29.901736,6.1411 29.878696,6.1091 C29.855596,6.0771 29.652306,5.6407 29.426816,5.1391 C28.812976,3.7736 27.770436,1.6465 27.559206,1.3285 C27.238826,0.8462 26.890456,0.7377 26.568886,1.0201 C26.472286,1.1051 26.249806,1.4391 26.074426,1.7627 C25.764136,2.3353 24.776446,4.424 24.267276,5.5844 L24.014706,6.1601 L22.785196,6.3065 C21.355976,6.4766 19.611875,6.719 18.973395,6.8361 C18.209895,6.9763 17.920835,7.2295 18.100555,7.6009 C18.234065,7.8768 19.194285,8.8845 20.575925,10.1987 C21.286766,10.8748 21.944486,11.4962 22.037506,11.5796 L22.206646,11.7313 L21.917426,13.2165 C21.492496,15.3986 21.269076,16.7649 21.269076,17.1814 C21.269076,17.5191 21.281776,17.5625 21.421406,17.7022 C21.682426,17.9632 21.850936,17.9263 22.973396,17.3625 L22.973406,17.3624 Z" id="Shape"></path>
                <path d="M41.022336,17.3624 C41.561036,17.0919 42.677746,16.494 43.503896,16.0339 L45.006006,15.1973 L45.953176,15.762 C48.146306,17.0696 49.701516,17.8023 50.284026,17.8023 C51.021996,17.8023 50.917246,16.1202 49.945816,12.371 L49.774026,11.708 L50.343496,11.1769 C51.270656,10.3123 53.568216,7.9978 53.745476,7.7498 C53.957616,7.4531 53.954936,7.3048 53.733676,7.0961 C53.539196,6.9127 53.388046,6.87 52.346036,6.7039 C51.635846,6.5907 49.020236,6.261 48.372936,6.2031 C48.151056,6.1831 47.950666,6.1411 47.927616,6.1091 C47.904616,6.0771 47.701226,5.6407 47.475746,5.1391 C46.861906,3.7736 45.819366,1.6465 45.608136,1.3285 C45.287756,0.8462 44.939386,0.7377 44.617816,1.0201 C44.521216,1.1051 44.298726,1.4391 44.123346,1.7627 C43.813066,2.3353 42.825376,4.424 42.316206,5.5844 L42.063626,6.1601 L40.834126,6.3065 C39.404906,6.4766 37.660806,6.719 37.022326,6.8361 C36.258826,6.9763 35.969766,7.2295 36.149486,7.6009 C36.282996,7.8768 37.243216,8.8845 38.624856,10.1987 C39.335696,10.8748 39.993406,11.4962 40.086426,11.5796 L40.255566,11.7313 L39.966356,13.2165 C39.541426,15.3986 39.318006,16.7649 39.318006,17.1814 C39.318006,17.5191 39.330706,17.5625 39.470336,17.7022 C39.731356,17.9632 39.899866,17.9263 41.022316,17.3625 L41.022336,17.3624 Z" id="Shape"></path>
                <path d="M59.071256,17.3624 C59.609966,17.0919 60.726666,16.494 61.552826,16.0339 L63.054936,15.1973 L64.002096,15.762 C66.195236,17.0696 67.750446,17.8023 68.332956,17.8023 C69.070926,17.8023 68.966176,16.1202 67.994736,12.371 L67.822956,11.708 L68.392426,11.1769 C69.319586,10.3123 71.617146,7.9978 71.794406,7.7498 C72.006546,7.4531 72.003866,7.3048 71.782606,7.0961 C71.588126,6.9127 71.436976,6.87 70.394966,6.7039 C69.684776,6.5907 67.069166,6.261 66.421866,6.2031 C66.199986,6.1831 65.999586,6.1411 65.976546,6.1091 C65.953546,6.0771 65.750156,5.6407 65.524676,5.1391 C64.910836,3.7736 63.868286,1.6465 63.657066,1.3285 C63.336686,0.8462 62.988316,0.7377 62.666746,1.0201 C62.570146,1.1051 62.347656,1.4391 62.172276,1.7627 C61.861996,2.3353 60.874306,4.424 60.365136,5.5844 L60.112556,6.1601 L58.883056,6.3065 C57.453836,6.4766 55.709736,6.719 55.071256,6.8361 C54.307756,6.9763 54.018696,7.2295 54.198416,7.6009 C54.331916,7.8768 55.292146,8.8845 56.673786,10.1987 C57.384626,10.8748 58.042336,11.4962 58.135356,11.5796 L58.304496,11.7313 L58.015276,13.2165 C57.590346,15.3986 57.366936,16.7649 57.366936,17.1814 C57.366936,17.5191 57.379636,17.5625 57.519266,17.7022 C57.780286,17.9632 57.948796,17.9263 59.071246,17.3625 L59.071256,17.3624 Z" id="Shape"></path>
                <path d="M77.120186,17.3624 C77.658886,17.0919 78.775596,16.494 79.601756,16.0339 L81.103866,15.1973 L82.051026,15.762 C84.244156,17.0696 85.799376,17.8023 86.381876,17.8023 C87.119846,17.8023 87.015106,16.1202 86.043666,12.371 L85.871886,11.708 L86.441356,11.1769 C87.368506,10.3123 89.666076,7.9978 89.843336,7.7498 C90.055476,7.4531 90.052796,7.3048 89.831536,7.0961 C89.637066,6.9127 89.485916,6.87 88.443906,6.7039 C87.733716,6.5907 85.118096,6.261 84.470806,6.2031 C84.248926,6.1831 84.048526,6.1411 84.025486,6.1091 C84.002386,6.0771 83.799096,5.6407 83.573606,5.1391 C82.959776,3.7736 81.917226,1.6465 81.706006,1.3285 C81.385626,0.8462 81.037256,0.7377 80.715686,1.0201 C80.619086,1.1051 80.396596,1.4391 80.221216,1.7627 C79.910936,2.3353 78.923246,4.424 78.414076,5.5844 L78.161496,6.1601 L76.931996,6.3065 C75.502766,6.4766 73.758676,6.719 73.120196,6.8361 C72.356696,6.9763 72.067636,7.2295 72.247346,7.6009 C72.380856,7.8768 73.341086,8.8845 74.722726,10.1987 C75.433566,10.8748 76.091276,11.4962 76.184296,11.5796 L76.353436,11.7313 L76.064216,13.2165 C75.639286,15.3986 75.415876,16.7649 75.415876,17.1814 C75.415876,17.5191 75.428576,17.5625 75.568206,17.7022 C75.829226,17.9632 75.997736,17.9263 77.120186,17.3625 L77.120186,17.3624 Z" id="Shape"></path>
            </g>
        </g>
    </g>
</svg>