<?xml version="1.0" encoding="UTF-8" standalone="no"?>
<svg width="86px" height="86px" viewBox="0 0 86 86" version="1.1" xmlns="http://www.w3.org/2000/svg" xmlns:xlink="http://www.w3.org/1999/xlink">
    <!-- Generator: Sketch 3.7.2 (28276) - http://www.bohemiancoding.com/sketch -->
    <title>noun_69629_cc</title>
    <desc>Created with Sketch.</desc>
    <defs></defs>
    <g id="Page-1" stroke="none" stroke-width="1" fill="none" fill-rule="evenodd">
        <g id="noun_69629_cc" fill="#D7D6D2">
            <g id="Group">
                <path d="M48.736,83.868 L50.444,83.868 L50.444,44.59 L64.96,44.59 L64.96,42.882 L50.444,42.882 L50.444,32.636 C50.444,19.645 52.54,13.85 64.96,13.85 L64.96,12.142 C51.245,12.142 48.736,19.044 48.736,32.636 L48.736,42.882 L41.052,42.882 L41.052,44.59 L48.736,44.59 L48.736,83.868 L48.736,83.868 Z" id="Shape"></path>
                <path d="M0.15,0.15 L0.15,85.85 L85.85,85.85 L85.85,0.15 L0.15,0.15 L0.15,0.15 Z M84.15,84.15 L1.85,84.15 L1.85,1.85 L84.15,1.85 L84.15,84.15 L84.15,84.15 Z" id="Shape"></path>
            </g>
        </g>
    </g>
</svg>