<?xml version="1.0" encoding="UTF-8" standalone="no"?>
<svg width="30px" height="31px" viewBox="0 0 30 31" version="1.1" xmlns="http://www.w3.org/2000/svg" xmlns:xlink="http://www.w3.org/1999/xlink">
    <!-- Generator: Sketch 3.7.2 (28276) - http://www.bohemiancoding.com/sketch -->
    <title>Fill 127</title>
    <desc>Created with Sketch.</desc>
    <defs></defs>
    <g id="Page-1" stroke="none" stroke-width="1" fill="none" fill-rule="evenodd">
        <path d="M26.539,30.85 L3.461,30.85 C1.55,30.85 0,29.301 0,27.387 L0,4.311 C0,2.399 1.55,0.85 3.461,0.85 L26.539,0.85 C28.451,0.85 30,2.399 30,4.311 L30,27.387 C30,29.301 28.451,30.85 26.539,30.85 L26.539,30.85 Z M15,10.08 C11.813,10.08 9.231,12.664 9.231,15.85 C9.231,19.036 11.813,21.62 15,21.62 C18.187,21.62 20.769,19.036 20.769,15.85 C20.769,12.664 18.187,10.08 15,10.08 L15,10.08 Z M26.539,5.465 C26.539,4.827 26.022,4.311 25.384,4.311 L21.924,4.311 C21.286,4.311 20.769,4.827 20.769,5.465 L20.769,8.926 C20.769,9.562 21.286,10.08 21.924,10.08 L25.384,10.08 C26.022,10.08 26.539,9.562 26.539,8.926 L26.539,5.465 L26.539,5.465 Z M26.539,13.541 L23.927,13.541 C24.118,14.279 24.231,15.051 24.231,15.85 C24.231,20.949 20.098,25.08 15,25.08 C9.902,25.08 5.769,20.949 5.769,15.85 C5.769,15.051 5.883,14.279 6.073,13.541 L3.461,13.541 L3.461,26.235 C3.461,26.871 3.978,27.387 4.616,27.387 L25.384,27.387 C26.022,27.387 26.539,26.871 26.539,26.235 L26.539,13.541 L26.539,13.541 Z" id="Fill-127" fill="#A9B8C2"></path>
    </g>
</svg>