<?xml version="1.0" encoding="UTF-8" standalone="no"?>
<svg width="363px" height="103px" viewBox="0 0 363 103" version="1.1" xmlns="http://www.w3.org/2000/svg" xmlns:xlink="http://www.w3.org/1999/xlink">
    <!-- Generator: Sketch 3.7.2 (28276) - http://www.bohemiancoding.com/sketch -->
    <title>lebonbon</title>
    <desc>Created with Sketch.</desc>
    <defs>
        <polygon id="path-1" points="0.06 102.94 362.063 102.94 362.063 0.118 0.06 0.118"></polygon>
    </defs>
    <g id="Page-1" stroke="none" stroke-width="1" fill="none" fill-rule="evenodd">
        <g id="lebonbon">
            <mask id="mask-2" fill="white">
                <use xlink:href="#path-1"></use>
            </mask>
            <g id="Clip-2"></g>
            <path d="M362.063,50.106 C362.063,48.198 360.155,46.955 358.333,46.955 C352.415,55.467 346.391,60.334 344.472,60.334 C343.614,60.334 343.132,59.959 343.132,58.896 C343.132,56.507 346.197,49.721 347.913,45.518 C349.917,40.93 350.679,37.585 350.679,35.002 C350.679,31.282 348.491,28.409 344.097,28.409 C339.884,28.409 333.29,32.708 326.322,44.746 C328.896,40.072 330.139,33.372 330.139,30.981 C330.139,28.119 329.281,26.972 326.022,26.972 C320.104,26.972 311.593,37.006 311.593,42.656 C311.593,43.085 311.786,43.535 311.808,43.985 C310.081,45.668 308.398,46.751 306.747,46.751 C305.804,46.751 305.128,46.376 304.839,46.076 C304.839,46.076 305.568,44.178 305.568,39.59 C305.568,35.291 303.66,30.124 299.736,30.124 C298.214,30.124 297.346,30.51 296.392,31.464 C296.306,28.312 293.239,27.262 290.753,27.262 C280.633,27.262 270.105,41.98 270.105,57.847 C270.105,67.216 275.466,71.708 282.252,71.708 C288.931,71.708 297.817,67.183 301.912,55.209 C301.912,55.209 303.735,56.453 306.34,56.003 C307.991,55.713 309.513,55.016 310.938,54.18 C310.456,56.399 310.156,58.512 310.156,60.526 C310.264,66.251 314.177,71.322 319.525,71.322 C321.734,71.322 322.398,71.043 323.353,70.089 C323.643,63.593 324.21,59.283 325.551,51.918 C329.281,46.762 332.433,45.336 333.29,45.336 C334.063,45.336 334.438,45.7 334.438,46.472 C334.438,48.584 329.56,58.232 329.56,64.547 C329.56,69.8 331.468,72.287 337.106,72.287 C345.919,72.287 362.063,56.131 362.063,50.106 M294.483,34.433 C293.047,37.199 292.329,41.263 292.403,44.511 C292.489,47.812 294.216,51.511 294.216,51.511 C292.64,56.871 289.423,60.334 287.13,60.334 C285.403,60.334 283.678,59.004 283.678,54.308 C283.678,46.472 288.556,37.199 294.483,34.433 M269.162,38.25 C269.162,30.981 266.579,27.83 261.423,27.83 C256.341,27.83 251.956,32.525 251.956,37.489 C251.956,38.25 252.042,38.925 252.246,39.794 C255.677,40.833 256.63,42.174 256.63,45.807 C256.63,52.111 251.366,61.009 247.84,61.009 C246.692,61.009 246.221,59.669 246.221,51.35 C246.221,47.909 246.886,40.833 247.84,34.905 C259.493,18.568 262.944,11.396 262.944,7.569 C262.944,2.98 260.543,1.072 256.727,1.072 C245.277,1.072 233.979,27.358 232.542,50.16 C227.504,56.57 222.808,60.334 221.179,60.334 C220.321,60.334 219.828,59.959 219.828,58.896 C219.828,56.507 222.894,49.721 224.609,45.518 C226.624,40.93 227.386,37.585 227.386,35.002 C227.386,31.282 225.188,28.409 220.793,28.409 C216.591,28.409 209.987,32.708 203.019,44.746 C205.592,40.072 206.835,33.372 206.835,30.981 C206.835,28.119 205.978,26.972 202.719,26.972 C196.807,26.972 188.294,37.006 188.294,42.656 C188.294,43.085 188.482,43.535 188.504,43.985 C186.783,45.668 185.1,46.751 183.454,46.751 C182.5,46.751 181.83,46.376 181.546,46.076 C181.546,46.076 182.27,44.178 182.27,39.59 C182.27,35.291 180.361,30.124 176.438,30.124 C174.916,30.124 174.047,30.51 173.093,31.464 C173.002,28.312 169.941,27.262 167.46,27.262 C157.329,27.262 146.813,41.98 146.813,57.847 C146.813,67.216 152.157,71.708 158.953,71.708 C165.638,71.708 174.519,67.183 178.614,55.209 C178.614,55.209 180.437,56.453 183.036,56.003 C184.688,55.713 186.21,55.016 187.636,54.18 C187.153,56.399 186.858,58.512 186.858,60.526 C186.954,66.251 190.878,71.322 196.222,71.322 C198.431,71.322 199.095,71.043 200.06,70.089 C200.339,63.593 200.907,59.283 202.247,51.918 C205.978,46.762 209.129,45.336 209.987,45.336 C210.759,45.336 211.145,45.7 211.145,46.472 C211.145,48.584 206.267,58.232 206.267,64.547 C206.267,69.8 208.175,72.287 213.804,72.287 C219.185,72.287 227.268,66.251 232.778,60.183 C233.914,68.385 237.688,72.287 244.12,72.287 C256.63,72.287 269.162,52.969 269.162,38.25 M171.185,34.433 C169.754,37.199 169.03,41.263 169.105,44.511 C169.186,47.812 170.917,51.511 170.917,51.511 C169.336,56.871 166.12,60.334 163.826,60.334 C162.105,60.334 160.379,59.004 160.379,54.308 C160.379,46.472 165.257,37.199 171.185,34.433 M130.754,39.794 C138.017,32.708 142.225,24.785 142.225,18.653 C142.225,7.762 134.388,0.118 115.649,0.118 C95.099,0.118 81.044,10.249 81.044,20.947 C81.044,24.399 82.583,26.597 85.161,26.597 C85.933,26.597 86.785,26.404 87.358,26.115 C90.891,19.039 99.017,16.359 107.336,15.319 C105.428,28.119 100.839,45.047 96.053,55.166 C88.597,55.842 85.263,56.796 85.263,60.43 C85.263,66.358 89.085,70.089 91.476,70.089 C93.759,70.089 95.769,68.749 99.783,65.501 C109.249,71.708 115.178,73.519 121.861,73.519 C135.723,73.519 142.412,66.165 142.412,56.035 C142.412,51.832 140.215,44.746 130.754,39.794 M126.932,23.531 C126.932,26.876 125.496,32.139 122.344,37.199 C120.816,37.006 119.192,36.91 117.756,36.91 C116.132,36.91 114.792,37.006 113.735,37.199 C115.178,31.85 116.7,24.871 118.324,15.223 C124.826,16.359 126.932,19.329 126.932,23.531 M128.46,58.232 C128.46,60.709 126.546,62.252 124.156,62.252 C120.532,62.252 112.98,59.851 105.428,57.278 C108.392,53.076 110.401,48.584 111.742,43.889 C124.252,49.249 128.46,53.258 128.46,58.232 M67.29,49.624 C67.29,48.101 65.95,46.569 63.656,46.472 C58.216,54.791 49.795,60.334 43.294,60.334 C39.573,60.334 38.705,57.943 38.705,53.644 C51.805,50.675 56.49,44.468 56.49,36.438 C56.49,29.749 52.855,26.597 46.258,26.597 C37.896,26.597 27.588,38.603 25.643,51.543 C21.682,56.625 17.785,59.959 15.49,59.959 C14.622,59.959 14.15,59.572 14.15,58.512 C14.15,56.131 18.637,39.493 21.221,30.231 C28.387,16.745 30.295,12.06 30.295,7.858 C30.295,2.98 27.717,1.072 23.611,1.072 C16.059,1.072 9.278,8.812 7.552,21.72 C6.694,28.216 4.974,37.199 3.821,43.406 C3.061,47.427 0,58.512 0,64.922 C0,69.885 2.01,72.287 7.552,72.287 C13.127,72.287 20.572,67.259 25.927,61.62 C27.411,68.191 31.539,71.9 38.903,71.9 C51.328,71.9 67.29,56.699 67.29,49.624 M39.289,46.569 C39.96,39.879 42.538,36.631 43.878,36.631 C45.019,36.631 45.786,37.778 45.786,39.794 C45.786,42.656 44.633,45.615 39.289,46.569" id="Fill-1" fill="#FFFFFF" mask="url(#mask-2)"></path>
            <path d="M226.367,101.049 C243.798,101.049 252.932,95.184 252.932,88.967 C252.932,87.198 252.096,85.15 250.595,84.454 C246.028,86.212 238.674,87.906 220.879,87.906 C138.762,87.906 109.121,91.722 109.121,100.963 C109.121,101.756 109.405,102.55 109.968,103 C121.428,100.245 134.195,99.183 149.761,99.183 C169.148,99.183 207.628,101.049 226.367,101.049" id="Fill-3" fill="#FFFFFF" mask="url(#mask-2)"></path>
        </g>
    </g>
</svg>