<?xml version="1.0" encoding="utf-8"?>
<!-- Generator: Adobe Illustrator 16.0.4, SVG Export Plug-In . SVG Version: 6.00 Build 0)  -->
<!DOCTYPE svg PUBLIC "-//W3C//DTD SVG 1.1//EN" "http://www.w3.org/Graphics/SVG/1.1/DTD/svg11.dtd">
<svg version="1.1" id="Calque_1" xmlns="http://www.w3.org/2000/svg" xmlns:xlink="http://www.w3.org/1999/xlink" x="0px" y="0px"
	 width="452px" height="57px" viewBox="0 0 452 57" enable-background="new 0 0 452 57" xml:space="preserve">
<g opacity="0.6">
	<g>
		<g>
			<path fill="#FFFFFF" d="M154.001,2.244h7.909v2.689c0,0-0.567,0-0.972,0c-0.462,0-0.603,0.175-0.603,0.635
				c0,0.454,0,5.766,0,6.058c0,0.29,0.242,0.561,0.636,0.561c0.395,0,1.98,0,2.282,0s0.669-0.212,0.669-0.639
				c0-0.423,0-2.168,0-2.168h3.158v5.497h-13.08v-2.679c0,0,0.587,0,0.922,0c0.43,0,0.659-0.148,0.659-0.584
				c0-0.302,0-5.732,0-6.046c0-0.389-0.079-0.635-0.602-0.635c-0.474,0-0.98,0-0.98,0L154.001,2.244L154.001,2.244z"/>
			<path fill="#FFFFFF" d="M168.459,2.244h13.011v4.058h-3.256c0,0,0-0.26,0-0.674c0-0.413-0.205-0.694-0.839-0.694
				c-0.632,0-2.835,0-2.835,0v2.279h3.063v2.449h-3.063v2.525c0,0,2.461,0,2.968,0c0.392,0,0.706-0.239,0.706-0.691
				c0-0.32,0-0.688,0-0.688h3.256v4.069h-13.011v-2.678c0,0,0.387,0,0.703,0c0.376,0,0.624-0.156,0.624-0.534
				c0-0.318,0-5.688,0-6.068c0-0.407-0.063-0.662-0.585-0.662c-0.521,0-0.742,0-0.742,0V2.244L168.459,2.244z"/>
			<path fill="#FFFFFF" d="M187.946,2.244h13.316v4.058h-3.256c0,0,0-0.274,0-0.688c0-0.367-0.227-0.681-0.725-0.681
				c-0.633,0-2.95,0-2.95,0v2.279h2.731v2.449h-2.731c0,0,0,1.178,0,1.826c0,0.503,0.217,0.71,0.868,0.71c0.506,0,1.034,0,1.034,0
				v2.679h-8.288v-2.679c0,0,0.779,0,1.098,0c0.314,0,0.535-0.214,0.535-0.534c0-0.318,0-5.688,0-6.068s-0.061-0.662-0.585-0.662
				c-0.521,0-1.048,0-1.048,0V2.244L187.946,2.244z"/>
			<path fill="#FFFFFF" d="M208.806,5.568c0-0.477,0.143-0.635,0.601-0.635c0.406,0,0.98,0,0.98,0V2.244h-7.865v2.689
				c0,0,0.528,0,1.002,0c0.524,0,0.602,0.242,0.602,0.635c0,0.122,0,5.793,0,6.06c0,0.468-0.285,0.569-0.619,0.569
				c-0.404,0-0.984,0-0.984,0v2.679h7.865v-2.679c0,0-0.487,0-0.961,0c-0.383,0-0.62-0.152-0.62-0.585
				C208.806,11.49,208.806,5.831,208.806,5.568z"/>
			<path fill="#FFFFFF" d="M222.262,2.244h2.786v4.442h-2.799c0,0-0.808-1.945-3.067-1.945c-1.699,0-3.016,1.231-3.016,3.514
				c0,3.858,2.118,4.184,3.042,4.184c1.881,0,2.313-1.341,2.313-1.882h-1.749v-2.33h6.029c0,0-0.018,0.948-0.027,1.625
				c-0.005,0.325-0.314,5.247-7.071,5.247c-4.867,0-7.424-2.797-7.424-6.79c0-2.651,2.062-6.254,7.013-6.254
				c2.773,0,3.97,1.138,3.97,1.138V2.244L222.262,2.244z"/>
			<path fill="#FFFFFF" d="M240.539,12.197c-0.539,0-0.702-0.483-1.026-1.264c-0.267-0.64-3.321-8.689-3.321-8.689h-4.845
				c0,0-3.283,8.947-3.439,9.33c-0.183,0.446-0.461,0.624-0.947,0.624c-0.457,0-0.7,0-0.7,0v2.679h5.923v-2.548c0,0-0.442,0-0.819,0
				c-0.355,0-0.433-0.275-0.317-0.653c0.136-0.442,0.376-1.135,0.376-1.135h3.6c0,0,0.199,0.626,0.381,1.196
				c0.14,0.432-0.314,0.592-0.584,0.592c-0.269,0-0.699,0-0.699,0v2.548h7.134v-2.679C241.253,12.197,241.131,12.197,240.539,12.197
				z M232.004,8.806l1.235-3.712h0.041l1.182,3.712H232.004z"/>
			<path fill="#FFFFFF" d="M257.267,12.197c-0.484,0-0.565-0.234-0.808-0.56c-0.242-0.325-1.749-2.678-1.749-2.678
				s2.207-0.623,2.207-2.978s-1.964-3.194-2.8-3.41c-0.833-0.217-2.637-0.327-3.122-0.327c-0.156,0-2.423,0-2.423,0h-6.167v2.689
				c0,0,0.374,0,0.849,0c0.529,0,0.601,0.266,0.601,0.635c0,0.122,0,5.738,0,6.001c0,0.265-0.039,0.628-0.627,0.628
				c-0.403,0-0.822,0-0.822,0v2.679h7.567v-2.679c0,0-0.299,0-0.773,0c-0.527,0-0.592-0.292-0.592-0.609c0-0.043,0-0.933,0-2.041
				l0,0h1.689l3.094,5.329h4.745v-2.679C258.135,12.197,257.751,12.197,257.267,12.197z M250.323,7.363c-0.565,0-1.716,0-1.716,0
				l0,0c0-1.248,0-2.349,0-2.599c0.522,0,1.427,0,1.87,0c0.544,0,1.515,0.191,1.515,1.325
				C251.992,6.934,251.362,7.363,250.323,7.363z"/>
			<path fill="#FFFFFF" d="M265.127,2.054c-5.269,0-7.179,3.545-7.179,6.39c0,3.771,2.636,6.652,7.125,6.652
				c4.001,0,7.151-2.194,7.151-6.491C272.225,4.517,269.224,2.054,265.127,2.054z M265.212,12.438c-1.158,0-2.377-0.692-2.377-4.214
				c0-2.166,0.827-3.514,2.242-3.514c1.335,0,2.313,0.895,2.313,3.763C267.391,11.573,266.377,12.438,265.212,12.438z"/>
		</g>
		<g>
			<path fill="#FFFFFF" d="M293.47,2.209c-1.108-0.405-1.516-0.56-2.268-0.56c-1.153,0-1.737,0.632-2.052,2.194l-0.167,0.895h1.944
				l-0.292,1.578h-1.967l-1.298,7.021c-0.167,0.896-0.606,1.896-1.088,2.475c-0.67,0.825-1.987,1.368-3.348,1.368
				c-0.293,0-0.649-0.018-1.067-0.087c-0.669-0.123-0.963-0.209-1.675-0.562l0.963-1.65c0.88,0.388,1.317,0.51,1.884,0.51
				c0.964,0,1.736-0.843,1.988-2.158l1.255-6.916h-1.966l0.288-1.598l2.013,0.02l0.293-1.547C287.287,1.194,288.919,0,291.241,0
				c0.253,0,0.522-0.002,0.837,0.035c0.41,0.047,0.99,0.126,1.687,0.349L293.47,2.209z"/>
			<path fill="#FFFFFF" d="M297.131,7.183c-0.151-0.08-0.229-0.095-0.359-0.095c-0.323,0-0.645,0.142-1.042,0.493
				c-0.474,0.396-0.833,0.856-1.098,1.412c-0.264,0.524-0.398,0.966-0.586,1.984l-0.246,1.333h-2.252l1.394-7.519l1.937,0.028
				l-0.359,2.206c0.171-0.255,0.302-0.445,0.378-0.572c0.303-0.414,0.644-0.81,1.002-1.143c0.398-0.381,0.777-0.541,1.307-0.541
				c0.286,0,0.456,0.064,0.795,0.254L297.131,7.183z"/>
		</g>
		<path fill="#FFFFFF" d="M280.165,8.575c0,1.198-0.964,2.166-2.155,2.166s-2.156-0.968-2.156-2.166
			c0-1.197,0.965-2.168,2.156-2.168S280.165,7.378,280.165,8.575z"/>
	</g>
</g>
<path fill="#FFFFFF" d="M321.235,37.462c-0.126,0.223-0.351,0.552-0.482,0.763c-2.473,3.367-6.065,5.111-10.184,5.053
	c1.706-3.898,3.61-7.71,6.329-11.178c1.016-1.096,2.232-2.008,3.755-1.604c0.567,0.244,1.217,0.649,1.439,1.258
	c0.745,1.868,0.113,3.836-0.789,5.525c-0.033,0.059-0.086,0.215-0.119,0.274l1.937,0.383c0.883-1.841,1.275-4.156,0.341-6.11
	c-0.679-1.442-1.434-2.011-3.67-2.069c-3.897,0.263-7.08,2.214-10.084,4.625c-6.409,5.293-7.34,13.144-12.961,18.863
	c-1.015,0.976-2.091,1.948-3.469,1.869c-0.649-0.429-0.241-1.218-0.163-1.828c1.848-4.421,3.773-8.803,5.497-13.267
	c0.812-3.124,0.831-7.2-1.685-9.451c-0.931-0.671-2.432-0.407-3.365,0.06c-3.104,1.645-5.479,4.891-7.524,7.605
	c0.018-2.818,0.039-5.78-1.885-7.85c-0.755-0.446-1.666-0.771-2.599-0.486c-3.568,1.057-6.33,4.708-8.337,7.708h-0.163v-1.055
	c-0.021-2.453-0.122-5.271-2.638-6.307c-1.134-0.347-2.171,0.119-3.041,0.669c-3.265,2.555-4.934,6.124-6.757,9.451
	c-2.718,4.686-4.785,9.759-9.005,13.694c-0.731,0.425-1.503,1.258-2.374,0.728c-0.609-0.486-0.264-1.419-0.142-2.027l9.492-22.677
	c-2.434-0.062-4.788-0.062-7.038,0l-1.196,2.797l-0.1-0.08c0-1.419-1.319-2.515-2.517-3.005c-2.737-0.604-5.235,0.508-7.425,1.848
	c-3.249,2.031-5.771,4.907-7.839,7.899l6.036,1.188c1.706-3.391,2.988-7.088,6.053-9.826c0.932-0.586,2.455-0.973,3.469-0.244
	c0.404,0.163,0.548,0.609,0.812,0.911c0.911,1.849,0.02,3.918-0.528,5.641c-2.375,5.843-4.605,11.826-10.022,16.209
	c-1.113,0.729-2.432,1.662-3.812,1.015c-0.832-0.59-0.648-1.622-0.527-2.517c1.115-3.875,3.014-7.737,4.655-11.407l-6.109-1.033
	c-1.995,2.942-3.835,6.398-5.534,9.366c-1.463,2.253-3.204,4.788-5.64,6.085c-0.426,0.122-0.872,0.021-1.155-0.282
	c-0.285-0.403-0.243-1.056-0.101-1.502l13.274-32.615c-2.354,0-4.38,0-6.855,0l-4.938,12.35c-0.264-1.579-1.522-3.225-3.166-3.568
	c-4.929-0.528-8.742,3.205-11.825,6.815c-0.425,0.5-0.937,1.262-1.304,1.783l5.816,1.266c1.296-2.889,2.632-6.449,5.315-8.616
	c0.67-0.368,1.482-0.65,2.272-0.385c0.59,0.183,1.136,0.647,1.442,1.194c0.829,2.112,0,4.363-0.771,6.229l-4.141,9.693
	c-1.499,2.861-4.056,6.289-7.239,7.428c-0.63,0.139-1.238,0-1.685-0.428c-0.506-0.69-0.447-1.764-0.242-2.557l1.057-3.186
	l3.182-7.769c0.336-0.61,0.642-1.241,0.931-1.878l-5.877-1.137c-2.564,3.781-4.11,8.342-6.607,12.093
	c-2.077,3.124-5.577,6.571-6.186,4.787c-0.343-0.811,0.1-1.622,0.385-2.331l9.312-22.172l-7.183-0.104
	c-0.546,0.813-0.668,1.847-1.216,2.599c-0.282-0.952-0.568-1.889-1.479-2.599c-2.049-1.521-5.072-0.67-7.182,0.205
	c-3.083,1.558-6.119,4.571-8.287,7.239l5.696,1.876c0.959-1.938,2.623-5.14,3.819-6.978c1.075-1.338,2.473-2.655,4.299-2.311
	c0.486,0.103,0.933,0.345,1.298,0.728c1.499,1.929,0.384,4.465-0.284,6.411l-3.712,8.58c-1.825,3.246-3.995,7.061-7.625,8.827
	c-0.711,0.222-1.767,0.382-2.355-0.245c-1.236-1.4-0.163-3.264,0.184-4.727c1.478-3.603,2.896-7.238,4.582-10.76l-5.601-1.851
	c-2.096,2.801-4.477,6.745-5.869,9.699c-1.664,2.964-3.589,6.409-6.835,8.134c-0.424,0.142-1.055,0.202-1.359-0.223
	c-0.343-0.465-0.161-1.155,0-1.643c1.927-5.68,5.66-10.67,6.024-17.039c-0.12-1.827,0.042-3.795-1.256-5.151
	c-0.873-0.997-2.435-0.936-3.549-0.528c-3.246,1.542-5.68,4.422-8.013,7.241c-0.061-2.516-0.224-4.989-1.826-6.856
	c-0.769-0.854-1.846-1.096-2.94-0.973c-3.491,0.851-6.106,4.299-8.155,7.139h-0.102c0.041-2.453-0.141-4.927-1.784-6.753
	c-0.894-0.771-2.436-0.591-3.43-0.145c-3.306,1.684-5.902,5.193-7.848,8.197c-0.812,1.318-1.704,2.596-2.233,4.016l0.872,0.284
	c2.069-3.936,4.644-8.033,8.58-10.793c0.346-0.08,0.812-0.323,1.077,0.083c-0.022,0.161,0.039,0.487-0.062,0.688l-9.775,23.227
	h7.282l5.293-12.616l1.4-3.105c1.866-3.022,3.938-6.509,7.282-8.376c0.427-0.103,0.913-0.062,1.218,0.284
	c0.181,0.425,0,0.934-0.164,1.357l-9.453,22.465l7.385-0.009l4.098-9.88c1.804-3.752,3.752-7.443,6.712-10.709
	c1.381-1.339,2.741-3.002,4.586-3.365c0.447,0.119,0.447,0.605,0.425,1.012l-4.161,9.737l-1.052,2.697
	c-1.055,3.265-1.42,7.91,1.542,10.368c1.175,0.911,2.798,0.565,4.056,0.101c3.712-2.233,5.721-6.371,7.809-9.882
	c0.102,1.379-0.02,2.982,0.286,4.345c0.343,2.45,1.823,5.312,4.482,5.92c2.554,0.73,4.744-0.812,6.51-2.657
	c1.481-1.642,2.678-3.451,4.017-5.109c0.244,2.695,0.568,5.373,2.698,7.241c0.79,0.567,1.927,0.73,2.879,0.423
	c3.875-1.66,5.74-5.758,7.729-9.004c0.101,1.176,0.346,2.271,0.527,3.428c0.608,2.435,2.069,5.537,4.97,5.884
	c4.159-0.428,6.855-4.587,9.007-7.771c0.383,2.601,0.162,5.497,2.412,7.223c1.198,0.831,2.921,0.386,4.017-0.323
	c3.286-2.455,5.216-5.924,7.119-9.172c0.144,0.427,0.428,5.701,1.563,7.427c0.812,1.421,2.332,2.514,3.935,2.514
	c4.342-0.465,7.386-4.95,9.798-8.197c0.083,0.329,0.043,0.733,0.043,1.099c0.22,2.557,0.443,5.234,2.614,6.855
	c0.974,0.649,2.373,0.243,3.326-0.202c3.062-1.908,5.093-5.194,6.796-8.134l4.584-8.439c0.995-1.767,2.045-3.552,3.287-5.171
	c1.774-2.313,3.804-2.873,3.226-1.442l-9.453,22.333l-0.346,0.915h7.242l6.063-14.465c0.831-1.783,1.83-3.489,3.004-5.11
	c1.4-1.744,3.062-3.795,5.113-4.584c0.343-0.143,0.954-0.202,1.155,0.244c0.101,0.933-0.509,1.704-0.771,2.556L272,55.07
	l-0.186,0.631h7.226l1.4-3.387l3.67-8.683c1.928-3.938,4.319-7.833,7.949-10.935c0.709-0.485,1.402-1.175,2.313-1.012
	c0.407,0.162,0.446,0.605,0.345,0.952l-1.822,4.399l-3.916,9.354l-0.528,2.068c-0.203,2.8,0.202,5.577,2.556,7.242
	c0.993,0.71,2.533,0.71,3.61,0.18c3.591-1.945,5.741-5.739,7.729-8.904c-0.042,1.807,0.142,3.655,0.769,5.256
	c0.934,2.717,3.814,4.666,6.658,4.768c6.424-0.367,10.851-6.523,12.613-12c0,0,0.145,0.251-0.649-0.284
	c-1.521,4.716-7.07,11.512-12.111,11.268c-0.933-0.181-1.928-0.83-2.127-1.825c-0.365-3.327,1.398-6.005,2.414-8.884l0.383-0.667
	c4.605,0.097,8.662-1.322,11.665-4.871c0.416-0.528,0.852-1.237,1.171-1.846L321.235,37.462"/>
</svg>
