<?xml version="1.0" encoding="UTF-8" standalone="no"?>
<svg width="37px" height="43px" viewBox="0 0 37 43" version="1.1" xmlns="http://www.w3.org/2000/svg" xmlns:xlink="http://www.w3.org/1999/xlink">
    <!-- Generator: Sketch 3.7.2 (28276) - http://www.bohemiancoding.com/sketch -->
    <title>Fill 157</title>
    <desc>Created with Sketch.</desc>
    <defs></defs>
    <g id="Page-1" stroke="none" stroke-width="1" fill="none" fill-rule="evenodd">
        <path d="M7.986,41.356 C9.141,41.885 10.334,42.332 11.57,42.69 C12.459,41.205 13.352,39.45 13.84,37.672 C14.17,36.479 15.723,30.318 15.723,30.318 C16.652,32.092 19.367,33.651 22.258,33.651 C30.855,33.651 36.689,25.811 36.689,15.323 C36.689,7.391 29.969,0 19.756,0 C7.049,0 0.641,9.11 0.641,16.708 C0.641,21.307 2.381,25.401 6.121,26.926 C6.73,27.178 7.277,26.934 7.457,26.257 C7.58,25.785 7.875,24.602 8.002,24.112 C8.18,23.442 8.111,23.203 7.617,22.617 C6.543,21.344 5.854,19.703 5.854,17.371 C5.854,10.616 10.908,4.565 19.023,4.565 C26.201,4.565 30.15,8.952 30.15,14.814 C30.15,22.526 26.736,29.034 21.67,29.034 C18.869,29.034 16.777,26.721 17.449,23.882 C18.252,20.494 19.811,16.838 19.811,14.39 C19.811,12.205 18.637,10.375 16.203,10.375 C13.342,10.375 11.043,13.335 11.043,17.299 C11.043,19.824 11.898,21.532 11.898,21.532 C11.898,21.532 8.973,33.936 8.457,36.104 C8.053,37.83 7.963,39.684 7.986,41.356" id="Fill-157" fill="#A9B8C2"></path>
    </g>
</svg>