<?xml version="1.0" encoding="UTF-8" standalone="no"?>
<svg width="48px" height="48px" viewBox="0 0 48 48" version="1.1" xmlns="http://www.w3.org/2000/svg" xmlns:xlink="http://www.w3.org/1999/xlink">
    <!-- Generator: Sketch 3.7.2 (28276) - http://www.bohemiancoding.com/sketch -->
    <title>noun_142142_cc</title>
    <desc>Created with Sketch.</desc>
    <defs></defs>
    <g id="Page-1" stroke="none" stroke-width="1" fill="none" fill-rule="evenodd">
        <g id="noun_142142_cc" fill="#323333">
            <g id="Group">
                <path d="M27.8,21.3 C30.6,23.5 28.1,27.2 26,28.7 C24.1,30.1 21,29.1 19.5,27.6 C17,25.3 18.9,21.8 20.7,19.9 C22.6,17.8 26.6,19.3 27.8,21.4 C28.2,22.1 29.3,21.5 28.9,20.8 C27.5,18.5 23.4,16.6 20.8,18.2 C17.6,20.2 15.9,24.5 18,27.9 C19.9,30.9 24.5,31.3 27.2,29.3 C29.8,27.4 31.7,22.8 28.6,20.4 C28.1,19.9 27.2,20.8 27.8,21.3 L27.8,21.3 L27.8,21.3 Z" id="Shape"></path>
                <path d="M24.1,24.9 C26,23.1 29,21.2 30,18.7 C30.6,17.2 30.9,15.4 31.4,13.8 C32.3,11.3 35.1,9.6 37,8 C36.6,7.9 36.3,7.7 35.9,7.6 C36,9.6 35.8,11.6 35.3,13.5 C35.2,13.9 35.5,14.3 35.9,14.3 C37.5,14.3 39,14.3 40.6,14.2 C40.5,13.8 40.3,13.5 40.2,13.1 C39.1,14.5 38,16 36.8,17.4 C35.5,19 31.4,18.6 29.5,18.7 C28.7,18.8 28.7,20 29.5,20 C31.9,19.9 34.6,19.8 36.9,18.9 C38.6,18.2 40,15.4 41.1,14 C41.4,13.6 41.3,12.9 40.7,12.9 C39.1,13 37.6,13 36,13 C36.2,13.3 36.4,13.5 36.6,13.8 C37.1,11.7 37.3,9.7 37.2,7.5 C37.2,6.9 36.6,6.7 36.1,7.1 C33.4,9.5 31,11.1 29.8,14.5 C29.3,16 29.2,18 28.1,19.2 C26.6,20.9 24.8,22.3 23.1,23.9 C22.6,24.5 23.5,25.4 24.1,24.9 L24.1,24.9 L24.1,24.9 Z" id="Shape"></path>
                <path d="M37,18.1 C39.3,23.7 38.7,29.5 35.4,34.6 C31.3,41 19.5,40.4 14.2,36 C9.3,32 8,22 11.1,16.7 C14.5,11 25.7,8.3 31.4,11.4 C32.1,11.8 32.7,10.7 32,10.3 C25.6,6.8 15.8,9.8 11,14.8 C5.8,20.1 8.4,30.6 12.4,35.8 C16.7,41.3 28.1,42.2 33.5,38.3 C39.9,33.8 40.9,24.3 38.2,17.7 C37.9,17 36.7,17.3 37,18.1 L37,18.1 L37,18.1 Z" id="Shape"></path>
                <path d="M39.8,8.3 C48,17.7 47.9,30.1 39.7,39.4 C31.6,48.5 16.1,47.7 7.8,39.5 C-0.5,31.3 0.1,16.1 7.9,7.7 C15.5,-0.4 32.3,0.7 39.8,8.3 C40.4,8.8 41.3,7.9 40.7,7.4 C31.9,-1.5 16.2,-0.8 7,6.9 C2.6,10.6 1,17.8 0.6,23.1 C0.2,29.5 2.8,35.7 7,40.4 C15.4,49.9 32.2,49.2 40.6,40.3 C49.6,30.8 49.1,17.1 40.7,7.5 C40.1,6.8 39.3,7.7 39.8,8.3 L39.8,8.3 L39.8,8.3 Z" id="Shape"></path>
            </g>
        </g>
    </g>
</svg>