<?xml version="1.0" encoding="UTF-8" standalone="no"?>
<svg width="35px" height="29px" viewBox="0 0 35 29" version="1.1" xmlns="http://www.w3.org/2000/svg" xmlns:xlink="http://www.w3.org/1999/xlink">
    <!-- Generator: Sketch 3.7.2 (28276) - http://www.bohemiancoding.com/sketch -->
    <title>Fill 163</title>
    <desc>Created with Sketch.</desc>
    <defs></defs>
    <g id="Page-1" stroke="none" stroke-width="1" fill="none" fill-rule="evenodd">
        <path d="M34.461,4.163 C33.195,4.727 31.83,5.106 30.398,5.278 C31.859,4.405 32.98,3.018 33.51,1.368 C32.145,2.178 30.631,2.768 29.02,3.082 C27.729,1.707 25.893,0.85 23.859,0.85 C19.953,0.85 16.787,4.017 16.787,7.92 C16.787,8.471 16.852,9.014 16.973,9.53 C11.096,9.233 5.885,6.42 2.398,2.143 C1.791,3.19 1.443,4.405 1.443,5.696 C1.443,8.151 2.688,10.315 4.588,11.58 C3.43,11.545 2.338,11.227 1.383,10.698 L1.383,10.787 C1.383,14.213 3.82,17.069 7.055,17.719 C6.461,17.877 5.836,17.963 5.195,17.963 C4.738,17.963 4.295,17.922 3.863,17.84 C4.764,20.649 7.375,22.69 10.467,22.746 C8.047,24.642 5,25.774 1.688,25.774 C1.115,25.774 0.551,25.741 0,25.674 C3.127,27.678 6.844,28.85 10.838,28.85 C23.844,28.85 30.955,18.08 30.955,8.737 C30.955,8.432 30.945,8.125 30.934,7.825 C32.316,6.828 33.514,5.584 34.461,4.163" id="Fill-163" fill="#A9B8C2"></path>
    </g>
</svg>